<?xml version="1.0" encoding="UTF-8" standalone="no"?>
<svg
   version="1.1"
   viewBox="0 0 1601.3052 1602.6105"
   width="640.52209"
   height="641.04419"
   id="svg150"
   xmlns="http://www.w3.org/2000/svg"
   xmlns:svg="http://www.w3.org/2000/svg">
  <defs
     id="defs150" />
  <path
     d="M 1.3052263,-1.293899e-7 H 1601.3052 V 1600 H 1.3052263 Z"
     fill="#0d151b"
     id="path1"
     style="fill:#0d151b;fill-opacity:1" />
  <path
     d="M 0,2.6104524 H 1600 V 1602.6105 H 0 Z m 260,204.9999976 -1,77 v 183 l -1,133 -1,44 -1,27 -1,65 -2,66 v 39 l 2,67 2,30 1,133.00005 1,191 v 134 h 143 l 14,1 54,1 h 111 l 56,-1 73,-2 h 647 v -18 l -1,-20 -2,-92 v -212 l 1,-24 3,-32.00005 2,-13 1,-15 v -312 l -3,-49 -1,-12 1,-280 1,-35 v -73 h -54 l -93,2 H 947 l -112,-1 H 518 l -56,-1 z"
     fill="#E2E3E1"
     id="path2"
     style="fill:none" />
  <path
     d="m 302,674.61045 13,2 44,3 h 103 l 26,-1 h 111 l 170,2 h 112 l 39,-1 176,-1 h 43 l 24,1 h 92 l 60,-1 1,12 1,30 1,82 v 97 l -1,46 -1,1 H 872 l -48,-1 -23,-1 h -60 l -69,1 -34,1 -274,1 h -65 l -1,-17 v -111 l 1,-107 2,-31 z"
     fill="#e1e2e1"
     id="path3" />
  <path
     d="m 454.91886,264.61045 h 11.96643 l 2.9916,60 v 255 l 0.9972,22 h 23.93285 l 10.96923,-2 7.97761,-4 2.99161,-1 v -2 l 5.98321,-4 9.97202,-9 12.96363,-12 9.97202,-11 8.97482,-11 17.94964,-20 8.97482,-11 13.96083,-15 17.94963,-22 9.97202,-14 11.96643,-14 8.97482,-11 9.97202,-11 6.98041,-8 10.96923,-12 11.96642,-14 8.97482,-11 11.96643,-14 8.97481,-11 11.96643,-14 13.96083,-17 8.97482,-10 11.96642,-12 7.97762,-7 19.94404,-20 8.97482,-11 h 3.98881 l 9.97202,10 8.97482,11 15.95523,17 18.94684,19 6.98042,8 14.95803,15 6.98041,8 10.96922,13 12.96363,17 9.97202,13 4.98601,6 8.97482,12 11.96643,14 11.96642,12 8.97482,11 4.98601,4 5.98321,8 4.98601,6 1.99441,1 v 2 l 3.98881,2 2.9916,3 0.9972,3 7.9776,7 10.9692,13 2.9917,3 1.9944,5 11.9664,12 4.986,6 4.986,5 9.972,12 4.986,7 2.9916,7 3.9888,6 4.9861,4 8.9748,11 1.9944,1 v 2 h 1.9944 l 8.9748,11 2.9916,3 2.9916,2 10.9692,1 94.7342,-4 144.5943,-1 0.9972,-5 h 0.9972 l 0.9972,19 0.9972,17 -20.9412,2 -10.9692,2 -68.807,1 -19.944,1 h -202.432 l -157.55796,1 H 714.1914 l -120.66145,-2 -46.8685,-2 -42.87969,-1 h -40.88528 l -36.89648,1 v -34 l 1.9944,-49 v -280 z"
     fill="#e1e2e0"
     id="path4"
     style="stroke-width:0.9986" />
  <path
     d="m 810,337.61045 6,1 9,7 9,8 7,8 13,15 10,13 12,15 7,9 12,14 9,10 9,11 10,9 29,29 5,4 7,8 30,30 7,8 9,9 7,8 9,9 11,14 6,9 2,9 -3,1 -132,1 -30,1 h -76 l -43,-1 -47,-2 H 593 l -17,-3 -4,-2 1,-4 9,-9 7,-8 8,-7 15,-14 8,-7 12,-12 8,-7 64,-64 5,-3 13,-12 14,-15 7,-9 3,-6 7,-10 6,-8 2,-4 5,-5 3,-5 5,-5 12,-14 9,-11 8,-8 z"
     fill="#0d141a"
     id="path5" />
  <path
     d="m 521,997.61045 h 28 l 15,2 10,5.00005 12,11 9,12 3,5 1,4 h 2 l 6,11 15,16 14,14 8,7 7,7 9,11 11,13 9,10 7,8 12,14 11,12 37,37 5,6 12,12 5,6 8,7 13,12 19,13 h 6 l 10,-6 11,-9 14,-12 10,-8 16,-13 5,-5 7,-6 14,-16 9,-10 7,-8 48,-48 9,-11 14,-15 7,-8 13,-13 7,-8 6,-8 1,-2 h 2 l 1,-4 h 2 l 1,-4 10,-14 8,-7 7,-7 12,-6 22,-3 h 40 l 3,2 v 12 l -12,5 -16,13 -8,7 -15,14 -7,7 -6,7 -11,9 -3,5 -5,5 h -2 l -1,4 -11,12 -8,10 h -2 l -1,4 -3,2 -3,7 -8,6 -3,5 -8,8 -6,7 -8,7 -4,5 h -3 l -2,4 -15,14 -28,28 -7,8 -10,11 -7,8 -5,4 -7,8 -7,6 -12,12 -6,1 -2,4 -10,9 -11,9 -7,7 -8,7 -10,10 -9,13 -6,11 -3,-4 -8,-14 -12,-18 -9,-11 -16,-17 -13,-12 -15,-16 -9,-11 -7,-7 -11,-14 -6,-7 v -2 l -4,-2 v -3 l -4,-2 -15,-16 -3,-4 -5,-3 -8,-9 -6,-5 -1,-3 -6,-5 -3,-5 -6,-7 -7,-6 -2,-4 -3,-2 -1,-3 -3,-2 -1,-3 -3,-2 -2,-4 -9,-9 -9,-10 -11,-12 -9,-11 -11,-13 -9,-11 -6,-5 -4,-4 -6,-5 -11,-6 -7,-3 -16,-1 -8,5 -5,2 -11,2 -22,1 h -46 l -100,-1 1,-3 1,-33.00005 z"
     fill="#e1e3e1"
     id="path6" />
  <path
     d="m 890,269.61045 h 14 l 37,2 11,1 67,2 203,-1 48,-1 16,-1 11,-1 v 48 h -34 l -38,-1 h -215 l -47,-1 -21,-1 -11,-4 -9,-7 -16,-15 -12,-13 -4,-4 z"
     fill="#e2e3e1"
     id="path7" />
  <path
     d="m 325,265.61045 h 45 v 193 l 1,100 v 71 l -48,-1 -1,-1 v -36 l 2,-46 1,-36 z"
     fill="#e2e3e1"
     id="path8" />
  <path
     d="m 323,1290.6105 73,2 43,2 h 207 l 21,-1 h 33 l 5,3 6,12 9,24 v 3 H 586 l -130,1 -37,1 h -96 z"
     fill="#e0e1df"
     id="path9" />
  <path
     d="m 533,268.61045 h 15 l 28,1 h 42 l 29,-1 h 76 l -2,4 -21,21 -3,5 -11,9 -5,4 h -36 l -27,-1 h -43 l -1,61 -1,118 -2,2 h -3 v 2 l -13,4 -10,3 -6,2 h -4 l -3,-7 -1,-5 -2,-108 v -110 z"
     fill="#e2e3e1"
     id="path10" />
  <path
     d="m 1239,1000.6105 h 41 l 6,1 v 26 l -3,1 -1,230 -1,41 -2,32 -1,1 h -42 l 1,-190 1,-141 z"
     fill="#e2e3e1"
     id="path11" />
  <path
     d="m 544,712.61045 40,1 16,3 10,6 8,8 4,9 3,24 1,19 v 66 l -2,17 -3,10 -5,10 -11,12 -12,5 -21,3 -21,2 -9,1 1,-18 1,-16 z"
     fill="#0f161c"
     id="path14" />
  <path
     d="m 482,710.61045 10,1 11,4 8,6 8,9 4,10 2,14 1,15 v 86 l -1,15 -3,10 -8,11 -8,8 -8,5 -7,2 h -15 l -12,-5 -10,-9 -6,-8 -4,-11 -1,-9 -1,-21 v -69 l 1,-19 3,-16 6,-11 7,-7 11,-7 z"
     fill="#0e161c"
     id="path16" />
  <path
     d="m 420,709.61045 4,1 1,33 v 163 h -9 l -14,-2 -1,-98 -4,6 -4,15 -2,7 -4,12 -5,12 -10,18 -3,2 -5,-8 -5,-12 -5,-14 -4,-10 -4,-13 -4,-9 h -1 l -1,20 -1,72 -2,1 h -18 l -1,-1 -2,-30 v -100 l 1,-47 1,-15 h 7 l 10,4 6,9 9,19 10,24 11,26 2,2 2,-5 3,-15 10,-30 11,-26 6,-8 4,-1 4,5 2,1 2,-5 z"
     fill="#0f161c"
     id="path17" />
  <path
     d="m 1156,1000.6105 h 18 l 2,1 v 2 h 2 l 1,3 1,12 v 48 l -1,40 -1,201 -2,24 -1,5 h -11 l -29,-2 v -54 l 2,-60 1,-209 2,-7 6,-3 z"
     fill="#e2e3e1"
     id="path18" />
  <path
     d="m 970,377.61045 45,2 43,2 240,1 -1,45 -90,-1 h -64 l -46,1 h -77 l -6,-2 -6,-4 -10,-11 -9,-11 -11,-13 -8,-7 z"
     fill="#e2e3e1"
     id="path19" />
  <path
     d="m 813,707.61045 38,1 16,3 11,6 7,7 6,13 3,12 1,10 v 28 l -3,8 -4,5 -16,14 2,9 14,39 5,20 1,6 v 11 l -4,2 h -18 l -3,-2 -3,-16 -5,-23 -5,-16 -9,-16 -7,-1 -2,11 -3,55 -1,6 -4,1 h -16 l -1,-3 -1,-28 v -33 l 1,-46 z"
     fill="#0f161c"
     id="path20" />
  <path
     d="m 721,997.61045 h 148 l 47,1 87,1 13,1.00005 7,3 1,9 -4,5 -12,5 -16,4 -29,3 h -71 l -47,-2 h -45 l -112,2 h -43 l -11,-4 -10,-5 -8,-6 -1,-6 4,-3 52,-5 z"
     fill="#e2e3e1"
     id="path21" />
  <path
     d="m 333,1098.6105 h 110 l 111,1 8,2 4,6 v 2 h 2 l 3,7 v 2 h 2 l 5,19 v 7 l -1,1 -105,-2 -150,-3 -1,-41 z"
     fill="#e2e3e1"
     id="path22" />
  <path
     d="m 1068,483.61045 13,1 20,1 59,1 39,1 101,1 -1,13 -1,31 v 3 l -31,-1 -161,-1 -8,-16 -10,-16 -9,-10 -11,-7 z"
     fill="#e1e2e0"
     id="path23" />
  <path
     d="m 643,1196.6105 2,1 3,16 5,18 1,4 -13,1 H 422 v -38 l 3,-1 h 189 z"
     fill="#e1e2e0"
     id="path24" />
  <path
     d="m 702,712.61045 h 9 v 17 l -1,9 -3,2 -36,1 -4,1 1,41 2,8 4,2 18,1 4,2 1,15 -1,7 -4,1 -17,1 -6,3 -1,1 v 43 l 2,7 38,1 v 19 l -1,8 -41,1 -13,1 -9,2 h -4 l -1,-71 v -120 l 1,-2 h 54 z"
     fill="#10171d"
     id="path25" />
  <path
     d="m 754,1057.6105 h 45 l 26,2 48,1 6,2 2,5 -2,13 -3,5 6,8 3,6 1,17 -2,4 h -24 l -6,-1 -102,-2 -5,-3 -3,-5 v -7 l 2,-10 5,1 2,1 v -2 h -2 v -20 l 1,-13 z"
     fill="#e0e1df"
     id="path27" />
  <path
     d="m 1072,1136.6105 h 2 v 155 l -2,35 -1,9 h -16 l -29,-3 1,-7 5,-107 1,-22 1,-8 1,-24 3,-5 h 2 v -2 h 3 v -2 l 12,-6 h 2 v -2 h 3 v -2 l 7,-4 z"
     fill="#e1e3e1"
     id="path29" />
  <path
     d="m 318,998.61045 h 59 l 42,2.00005 41,1 18,1 6,4 7,2 2,3 -2,10 -3,5 -3,2 -16,1 -35,2 -78,2 h -39 z"
     fill="#e2e3e1"
     id="path30" />
  <path
     d="m 721,997.61045 h 27 v 1 h -23 v 2.00005 l -34,3 -41,5 -17,4 -3,2 5,5 6,5 9,1 h 94 l 67,-2 h 105 l 35,-3 6,-1 v -2 l 2,-1 v -3 l -9,-3 -15,-2 -9,-2 -18,-2 -31,-2 -24,-2 -21,-1.00005 -5,-1 v -1 h 42 l 47,1 87,1 13,1.00005 7,3 1,9 -4,5 -12,5 -16,4 -29,3 h -71 l -47,-2 h -45 l -112,2 h -43 l -11,-4 -10,-5 -8,-6 -1,-6 4,-3 52,-5 z"
     fill="#a9b3b7"
     id="path31" />
  <path
     d="m 478,742.61045 h 8 l 9,3 4,5 1,2 v 114 l -4,6 -4,2 h -12 l -6,-4 -3,-6 -2,-10 v -99 l 1,-7 6,-5 z"
     fill="#e1e2e0"
     id="path32" />
  <path
     d="m 966,1279.6105 h 6 l 2,2 3,7 8,6 2,5 1,9 v 23 l -4,2 h -83 l -1,-4 5,-9 h 2 l 2,-5 h 2 v -3 h 2 v -3 h 2 l 1,-4 4,-7 h 2 l 1,-4 6,-7 10,-5 9,-2 z"
     fill="#e1e2e0"
     id="path34" />
  <path
     d="m 573,743.61045 h 9 l 12,4 3,4 2,60 v 45 l -4,10 -12,6 -7,2 h -7 v -32 l 2,-95 z"
     fill="#e1e2e0"
     id="path36" />
  <path
     d="m 1071.6844,711.89686 -40,1 -16,3 -10,6 -7.99998,8 -4,9.00003 -3,24 -1,19 v 66 l 2,17 3,10 5,10 10.99998,12 12,5 21,3 21,2 9,1 -1,-18 -1,-16 z"
     fill="#0f161c"
     id="path14-3" />
  <path
     d="m 1133.6844,709.89686 -10,1 -11,4 -8,6 -8,9 -4,10.00003 -2,14 -1,15 v 86 l 1,15 3,10 8,11 8,8 8,5 7,2 h 15 l 12,-5 10,-9 6,-8 4,-11 1,-9 1,-21 v -69 l -1,-19 -3,-16 -6,-11.00003 -7,-7 -11,-7 z"
     fill="#0e161c"
     id="path16-5" />
  <path
     d="m 1195.6844,708.89686 -4,1 -1,33.00003 v 163 h 9 l 14,-2 1,-98 4,6 4,15 2,7 4,12 5,12 10,18 3,2 5,-8 5,-12 5,-14 4,-10 4,-13 4,-9 h 1 l 1,20 1,72 2,1 h 18 l 1,-1 2,-30 v -100 l -1,-47.00003 -1,-15 h -7 l -10,4 -6,9 -9,19.00003 -10,24 -11,26 -2,2 -2,-5 -3,-15 -10,-30 -11,-26.00003 -6,-8 -4,-1 -4,5 -2,1 -2,-5 z"
     fill="#0f161c"
     id="path17-6" />
  <path
     d="m 913.68442,711.89686 h -9 v 17 l 1,9.00003 3,2 36,1 4,1 -1,41 -2,8 -4,2 -18,1 -4,2 -1,15 1,7 4,1 17,1 6,3 1,1 v 43 l -2,7 -38,1 v 19 l 1,8 41,1 13,1 9,2 h 4 l 1,-71 V 714.89686 l -1,-2 h -54 z"
     fill="#10171d"
     id="path25-2" />
  <path
     d="m 1137.6844,741.89689 h -8 l -9,3 -4,5 -1,2 v 114 l 4,6 4,2 h 12 l 6,-4 3,-6 2,-10 v -99 l -1,-7 -6,-5 z"
     fill="#e1e2e0"
     id="path32-9" />
  <path
     d="m 1042.6844,742.89689 h -9 l -12,4 -3,4 -2,60 v 45 l 4,10 12,6 7,2 h 7 v -32 l -2,-95 z"
     fill="#e1e2e0"
     id="path36-1" />
  <path
     d="m 521,997.61045 h 28 l 15,2 3,2.00005 -11,-1 h -40 l -7,1 -1,5 8,7 5,6 7,6 v 2 l 2,1 -4,-1 -2,-1 -16,-1 -8,5 -5,2 -11,2 -22,1 h -46 l -100,-1 1,-2 h 39 l 78,-2 37,-2 14,-1 4,-3 2,-9 1,-4 -2,-3 -8,-2 -4,-3 -22,-1 -63,-2 -16,-1.00005 v -1 z"
     fill="#9fa9ad"
     id="path37" />
  <path
     d="m 323,1197.6105 h 43 l 1,11 1,27 -3,1 -26,1 h -16 l -1,-24 v -15 z"
     fill="#e1e2e0"
     id="path38" />
  <path
     d="m 841,739.61045 h 17 l 6,3 4,5 2,6 v 13 l -4,18 -6,8 -10,5 h -9 l -3,-1 -1,-2 v -41 l 2,-12 z"
     fill="#e0e2e0"
     id="path39"
     style="fill:#c70008;fill-opacity:1" />
  <path
     d="m 814.44592,707.60733 -38,1 -16,3 -11,6 -7,7 -6,13 -3,12 -1,10 v 28 l 3,8 4,5 16,14 -2,9 -14,39 -5,20 -1,6 v 11 l 4,2 h 18 l 3,-2 3,-16 5,-23 5,-16 9,-16 7,-1 2,11 3,55 1,6 4,1 h 16 l 1,-3 1,-28 v -33 l -1,-46 z"
     fill="#0f161c"
     id="path20-7" />
  <path
     d="m 786.44592,739.60733 h -17 l -6,3 -4,5 -2,6 v 13 l 4,18 6,8 10,5 h 9 l 3,-1 1,-2 v -41 l -2,-12 z"
     fill="#e0e2e0"
     id="path39-5"
     style="fill:#c70008;fill-opacity:1" />
  <path
     d="m 711,996.61045 h 318 l 10,1 4,3.00005 v 9 l -2,4 -13,5 -31,9 -11,2 -18,2 -21,1 h -22 l -55,-3 v -1 h 93 l 29,-3 19,-5 10,-5 2,-3 v -9 l -7,-2 -13,-1 -87,-1.00005 -47,-1 H 721 l -50,3.00005 -52,5 -3,2 1,6 10,7 11,5 -4,1 -12,-5 -10,-6 -5,-6 v -6 l 6,-3 31,-1 46,-3.00005 z"
     fill="#313b43"
     id="path40" />
  <path
     d="m 691,628.61045 h 352 l 117,1 78,1 v 1 h -203 l -158,1 H 715 l -121,-2 v -1 z"
     fill="#747f86"
     id="path41" />
  <path
     d="m 827,997.61045 h 42 l 47,1 87,1 13,1.00005 7,3 1,9 -4,5 -12,5 -16,4 -29,3 h -71 l -47,-2 h -96 v -1 l 50,-1 h 53 l 55,1 h 19 l 30,-1 30,-3 15,-4 5,-5 v -4 l -6,-2 -16,-2 -6,-1 -151,-6.00005 z"
     fill="#6d787f"
     id="path42" />
  <path
     d="m 1097,676.61045 h 48 l 37,1 h 133 v 1 l -6,1 -54,1 h -92 l -24,-1 h -43 l -176,1 -39,1 H 769 l -73,-1 -38,-1 v -1 h 253 l 9,-1 z"
     fill="#555f67"
     id="path45" />
  <path
     d="m 818,1068.6105 h 8 l 5,12 1,3 15,-1 12,-1 h 13 l 2,1 -1,7 -2,5 -2,1 -19,1 -5,2 -4,5 -2,6 -8,-5 -3,-4 -7,-2 -1,-8 -1,-4 -3,-3 -2,-9 1,-5 z"
     fill="#131a20"
     id="path46" />
  <path
     d="m 874,1089.6105 7,6 1,2 1,19 -1,3 h -28 l -14,-1 v -15 l 6,-7 4,-1 21,-1 v -3 z"
     fill="#e0e1df"
     id="path48" />
  <path
     d="m 903,285.61045 4,2 7,7 8,7 9,7 5,2 66,2 55,1 143,1 59,1 24,1 7,1 v 1 h -27 l -38,-1 h -215 l -47,-1 -21,-1 -11,-4 -9,-7 -16,-15 z"
     fill="#758087"
     id="path49" />
  <path
     d="m 1290,999.61045 19,1.00005 5,3 4,2 v 2 h 4 l 1,2 1,12 -4,2 -18,2 -11,2 h -5 l -1,-2 v -10 l 1,-14 z"
     fill="#2d363f"
     id="path51" />
  <path
     d="m 533,268.61045 h 15 l 28,1 h 42 l 29,-1 h 44 v 1 l -7,1 -42,2 -34,3 h -18 l -31,-1 -12,-1 h -14 l -1,1 -1,14 -1,94 h -1 v -110 z"
     fill="#a9b3b7"
     id="path52" />
  <path
     d="m 691,628.61045 h 352 v 1 l -170,2 h -96 l -183,-1 v -1 z"
     fill="#a7b1b5"
     id="path53" />
  <path
     d="m 1092,422.61045 h 76 l 44,1 2,1 52,1 v 1 h -123 l -46,1 h -77 l -5,-1 v -1 z"
     fill="#8b959a"
     id="path54" />
  <path
     d="m 1096,998.61045 h 33 l 9,2.00005 3,-1.00005 15,-1 h 14 l 7,2.00005 -1,3 v -2 h -20 l -13,2 -3,3 -1,5 -1,14 -1,-3 -6,-2 -9,1 -10,7 -10,8 -14,13 -8,7 -6,6 -2,-1 17,-17 16,-14 16,-12 9,-3 v -12 l -2,-1 h -40 l -22,3 -12,6 -13,13 v -3 l 11,-12 9,-6 5,-2 17,-2.00005 z"
     fill="#6d787f"
     id="path55" />
  <path
     d="m 768,1079.6105 h 9 l 14,2 11,8 1,6 -5,4 h -10 l -28,-4 1,-5 4,-9 z"
     fill="#161d24"
     id="path57" />
  <path
     d="m 1088,1001.6105 h 40 l 3,2 v 12 l -12,5 -16,13 -8,7 -15,14 -7,7 -6,7 -1,-3 14,-15 13,-12 11,-9 9,-8 3,-6 -3,-9 -3,-1 h -21 l -22,3 -11,4 -10,9 -5,5 h -2 l -2,5 -4,3 2,-5 4,-5 8,-7 7,-7 12,-6 z"
     fill="#a8b2b6"
     id="path58" />
  <path
     d="m 972,1269.6105 6,2 2,2 v 12 l 5,2 7,6 1,3 v 19 l -1,11 1,3 h 29 3 l 1,3 h 8 v 1 h -50 l 3,-2 v -23 l -2,-12 -5,-5 -5,-4 -3,-7 h -24 v -1 l 9,-3 2,-2 6,-2 z"
     fill="#2d363f"
     id="path59" />
  <path
     d="m 920,677.61045 h 118 v 1 l -102,1 -16,1 -39,1 H 769 l -73,-1 -38,-1 v -1 h 253 z"
     fill="#4d565e"
     id="path60" />
  <path
     d="m 966,1279.6105 h 6 l 2,2 3,7 8,6 2,5 1,9 v 23 l -4,2 h -13 l 2,-2 8,-1 v -8 l -2,-7 -2,-14 -4,-7 -7,-8 -7,-2 h -14 l -11,3 -6,4 -4,3 2,-4 8,-6 9,-3 5,-1 z"
     fill="#a6b0b4"
     id="path61" />
  <path
     d="m 970,377.61045 45,2 43,2 236,1 v 1 l -138,1 h -101 l -52,-2 -24,-2 h -8 z"
     fill="#6d787f"
     id="path62" />
  <path
     d="m 635,359.61045 h 11 l 6,3 6,7 v 7 l -5,4 -6,2 h -11 l -6,-5 v -10 l 3,-7 z"
     fill="#2d363f"
     id="path63" />
  <path
     d="m 503,1014.6105 10,3 13,8 -2,1 -16,-1 -8,5 -5,2 -11,2 -22,1 h -46 l -100,-1 1,-2 h 128 l 39,-1 12,-3 3,-9 z"
     fill="#68737a"
     id="path64" />
  <path
     d="m 903,285.61045 4,2 7,7 8,7 9,7 5,2 66,2 55,1 143,1 v 1 h -200 l -50,-1 -17,-2 -9,-6 -7,-7 -8,-7 z"
     fill="#a9b3b7"
     id="path65" />
  <path
     d="m 711,996.61045 h 38 v 1 l -47,2 -31,2.00005 -52,5 -3,2 1,6 10,7 11,5 -4,1 -12,-5 -10,-6 -5,-6 v -6 l 6,-3 31,-1 46,-3.00005 z"
     fill="#2d363f"
     id="path66" />
  <path
     d="m 721,997.61045 h 27 v 1 l -41,2.00005 -53,5 -30,5 v 4 l 1,3 5,2 12,7 4,1 42,1 v 1 h -43 l -11,-4 -10,-5 -8,-6 -1,-6 4,-3 52,-5 z"
     fill="#6d787f"
     id="path67" />
  <path
     d="m 890,269.61045 h 14 l 37,2 11,1 67,2 h 70 v 1 l -39,1 h -75 l -60,-3 -23,-2 -1,2 z"
     fill="#a9b3b7"
     id="path70" />
  <path
     d="m 1081,485.61045 h 20 l 59,1 39,1 96,1 v 1 h -165 l -34,-1 v -2 h -15 z"
     fill="#8e999e"
     id="path71" />
  <path
     d="m 577,1137.6105 h 1 v 7 l -1,1 -105,-2 -92,-2 v -1 h 81 l 78,1 38,2 z"
     fill="#8e999e"
     id="path72" />
  <path
     d="m 707,999.61045 h 18 v 1.00005 l -34,3 -41,5 -17,4 -3,2 5,5 6,5 5,2 -4,1 -14,-8 -5,-5 v -4 l 5,-2 26,-4 z"
     fill="#a9b3b7"
     id="path74" />
  <path
     d="m 1033,1196.6105 h 1 v 23 l -1,36 -1,24 v 42 l -2,8 -2,2 -2,1 1,-7 5,-107 z"
     fill="#909ba0"
     id="path75" />
  <path
     d="m 533,268.61045 h 15 l 28,1 h 42 l 29,-1 h 44 v 1 l -61,2 -14,1 h -86 l 1,-3 z"
     fill="#6d787f"
     id="path76" />
  <path
     d="m 1109,996.61045 h 13 l 19,1 h 29 v 1 l -29,2.00005 -4,1 -8,-2.00005 h -33 l -24,2.00005 -9,2 -8,5 -8,7 v -3 l 2,-7 2,-2 15,-5.00005 12,-1 z"
     fill="#2d363f"
     id="path78" />
  <path
     d="m 1156,1000.6105 h 18 l 2,1 v 2 h 2 v 3 h -2 l -1,-2 h -10 l -16,4 -6,2 -2,5 -1,7 -1,40 h -1 v -51 l 2,-7 6,-3 z"
     fill="#a6b1b5"
     id="path79" />
  <path
     d="m 966,1279.6105 h 6 l 2,2 3,7 8,6 2,5 1,9 v 23 l -4,2 h -13 v -1 l 13,-2 v -14 l -2,-17 -5,-5 -5,-6 -2,-5 -10,-1 h -9 l -12,1 4,-2 5,-1 z"
     fill="#6d787f"
     id="path80" />
  <path
     d="m 1000,1023.6105 m -5,1 h 5 v 2 l -15,3 -18,2 -21,1 h -22 l -55,-3 v -1 h 93 l 29,-3 z"
     fill="#2d363f"
     id="path82" />
  <path
     d="m 650,1025.6105 h 85 l 9,1 v 1 l -8,1 h -90 v -2 z"
     fill="#9fa9ae"
     id="path83" />
  <path
     d="m 493,1197.6105 h 132 v 1 l -6,1 -25,1 h -36 l -52,-1 -13,-1 z"
     fill="#8d979d"
     id="path84" />
  <path
     d="m 503,1014.6105 10,3 13,8 -2,1 -16,-1 -8,5 -5,2 -11,1 1,-2 11,-3 3,-9 z"
     fill="#6d787f"
     id="path86" />
  <path
     d="m 640,363.61045 9,1 3,3 1,9 -2,2 h -13 l -3,-4 1,-8 z"
     fill="#a9b3b7"
     id="path87" />
  <path
     d="m 970,377.61045 18,1 v 2 h 22 l 46,2 100,1 v 1 h -101 l -52,-2 -24,-2 h -8 z"
     fill="#a9b3b7"
     id="path88" />
  <path
     d="m 866,1080.6105 h 12 l -2,5 6,8 3,6 1,17 -2,4 h -24 v -1 h 22 l -1,-22 -6,-7 -3,1 2,-9 -8,-1 z"
     fill="#848f95"
     id="path94" />
  <path
     d="m 638,361.61045 h 8 l 6,3 4,6 -1,7 -5,3 -10,1 -6,-3 -1,-1 v -11 z m 2,2 -4,3 -1,8 3,4 h 13 l 2,-2 -1,-9 -3,-3 z"
     fill="#6d787f"
     id="path95" />
  <path
     d="m 531,271.61045 h 16 v 1 l -14,1 -1,1 -1,14 -1,94 h -1 v -110 z"
     fill="#9ea8ad"
     id="path96" />
  <path
     d="m 1239,1000.6105 h 41 l 6,1 v 26 l -3,1 -1,-16 -1,-8 -5,-2 -37,-1 z"
     fill="#929da2"
     id="path99" />
  <path
     d="m 1357,624.61045 2,1 -1,2 -29,3 h -71 v -1 l 69,-1 19,-3 z"
     fill="#3a434c"
     id="path100" />
  <path
     d="m 949,1190.6105 2,1 -19,19 -7,8 -10,11 -7,8 -2,1 1,-4 8,-10 6,-5 1,-2 h 2 l 2,-4 z"
     fill="#6d787f"
     id="path101" />
  <path
     d="m 1096,591.61045 4,2 6,4 h 27 l 30,-1 h 25 v 1 l -73,3 -11,-1 -6,-4 z"
     fill="#6d787f"
     id="path102" />
  <path
     d="m 1061,1072.6105 v 3 l -13,14 -9,11 -8,10 h -2 l -2,5 h -2 l -2,4 -4,3 1,-4 3,-2 1,-3 5,-5 9,-10 7,-8 1,-3 8,-7 3,-5 z"
     fill="#59646b"
     id="path104" />
  <path
     d="m 777,372.61045 v 3 l -5,7 h -2 l -2,5 -5,5 -12,17 -5,6 v -3 l 7,-10 6,-8 2,-4 5,-5 3,-5 5,-5 z"
     fill="#687279"
     id="path105" />
  <path
     d="m 877,1082.6105 2,4 5,5 3,9 v 18 l -2,1 -1,-20 -6,-11 -3,-4 z"
     fill="#2d363f"
     id="path106" />
  <path
     d="m 1125,1019.6105 9,1 3,2 -1,2 -4,-2 -5,1 -11,5 -6,3 -2,-1 14,-10 z"
     fill="#2d363f"
     id="path107" />
  <path
     d="m 702,1294.6105 5,5 5,12 6,16 -1,2 -7,-14 -7,-18 z"
     fill="#96a0a5"
     id="path108" />
  <path
     d="m 1093,1038.6105 m -1,1 m -1,1 m -1,1 m -1,1 m -1,1 v 3 l -15,15 -6,7 -1,-3 14,-15 z"
     fill="#a4aeb2"
     id="path109" />
  <path
     d="m 508,1024.6105 16,1 -3,2 -12,1 -13,5 h -7 v -1 l 10,-2 3,-3 z"
     fill="#2d363f"
     id="path110" />
  <path
     d="m 903,285.61045 4,2 7,7 8,7 9,7 8,3 v 1 h -6 l -9,-6 -7,-7 -8,-7 z"
     fill="#8c969c"
     id="path111" />
  <path
     d="m 601,557.61045 2,1 -31,31 1,-4 9,-9 7,-8 8,-7 z"
     fill="#313941"
     id="path112" />
  <path
     d="m 728,432.61045 3,1 -9,10 -8,8 -8,6 1,-4 4,-2 v -2 l 5,-3 5,-5 3,-5 z"
     fill="#838d93"
     id="path113" />
  <path
     d="m 644,367.61045 5,2 1,1 v 5 l -1,1 -7,-1 -2,-3 z"
     fill="#e3e4e2"
     id="path114" />
  <path
     d="m 974,1165.6105 3,1 -17,16 -8,8 v -3 l 8,-8 7,-8 5,-3 z"
     fill="#818c92"
     id="path115" />
  <path
     d="m 708,284.61045 v 3 l -9,11 -10,9 -5,2 5,-6 9,-7 3,-5 z"
     fill="#2d363f"
     id="path117" />
  <path
     d="m 839,1105.6105 h 1 v 13 h -33 v -1 h 31 l -2,-10 2,1 z"
     fill="#879298"
     id="path118" />
  <path
     d="m 1072,565.61045 5,5 8,9 2,1 v 2 h 2 l 7,8 h -3 l -19,-19 v -3 h -2 z"
     fill="#737e84"
     id="path120" />
  <path
     d="m 646,1208.6105 h 1 l 6,23 1,4 h -7 l 2,-2 -1,-10 -2,-9 z"
     fill="#8a949a"
     id="path122" />
  <path
     d="m 775,1087.6105 h 10 l 1,2 -7,2 h -12 l 3,-3 z"
     fill="#c3c8c8"
     id="path123" />
  <path
     d="m 1096,591.61045 4,2 6,4 25,1 v 1 l -22,1 -6,-2 -5,-3 z"
     fill="#778288"
     id="path124" />
  <path
     d="m 567,1001.6105 5,2 9,7 5,5 -1,2 -11,-9 -7,-5 z"
     fill="#8e999e"
     id="path125" />
  <path
     d="m 558,492.61045 h 10 v 1 l -13,4 -7,2 1,-4 z"
     fill="#808b91"
     id="path127" />
  <path
     d="m 558,2.6104524 h 15 l 1,3 h -17 z"
     fill="#404a52"
     id="path128" />
  <path
     d="m 1284,1002.6105 h 1 l 1,20 -3,1 -1,-20 z"
     fill="#a5afb3"
     id="path130" />
  <path
     d="m 970,377.61045 18,1 v 2 h 15 v 1 h -16 l -16,-1 z"
     fill="#949ea3"
     id="path131" />
  <path
     d="m 669,1176.6105 5,2 9,10 h -3 l -7,-4 -2,-4 z"
     fill="#313a43"
     id="path132" />
  <path
     d="m 1069,561.61045 6,4 7,7 4,6 1,2 -4,-2 -10,-12 -4,-3 z"
     fill="#363f48"
     id="path133" />
  <path
     d="m 1064,2.6104524 h 13 v 3 h -14 z"
     fill="#5d686f"
     id="path134" />
  <path
     d="m 899,1242.6105 3,1 -11,11 -3,1 1,-4 5,-4 h 2 l 2,-4 z"
     fill="#919ba0"
     id="path135" />
  <path
     d="m 917,1222.6105 v 3 l -2,2 -2,5 -7,6 1,-4 8,-10 z"
     fill="#9aa4a9"
     id="path136" />
  <path
     d="m 1061,1072.6105 v 3 l -14,15 -1,-3 8,-7 3,-5 z"
     fill="#717b82"
     id="path137" />
  <path
     d="m 710,1311.6105 h 2 l 6,16 -1,2 -7,-14 z"
     fill="#8f999f"
     id="path138" />
  <path
     d="m 698,294.61045 v 3 l -13,11 h -3 l 6,-7 7,-4 z"
     fill="#778288"
     id="path139" />
  <path
     d="m 890,269.61045 h 14 l 2,2 -2,1 -12,-1 -1,2 z"
     fill="#a5afb3"
     id="path140" />
  <path
     d="m 1075,1060.6105 m -1,1 m -2,1 2,1 -11,11 -1,-3 z"
     fill="#232b32"
     id="path141" />
  <path
     d="m 744,415.61045 v 3 l -11,13 -2,1 2,-4 3,-5 2,-1 2,-4 z"
     fill="#747e85"
     id="path142" />
  <path
     d="m 1011,1130.6105 v 3 l -9,10 -3,3 -2,-1 10,-10 2,-4 z"
     fill="#646e76"
     id="path143" />
  <path
     d="m 924,304.61045 12,6 3,2 h -6 l -9,-6 z"
     fill="#939da3"
     id="path148" />
  <path
     d="m 708,284.61045 v 3 l -7,8 h -2 l 2,-4 z"
     fill="#444e56"
     id="path149" />
  <path
     d="m 636,1140.6105 4,2 7,8 v 2 l -4,-2 -4,-6 z"
     fill="#677178"
     id="path150" />
  <rect
     style="opacity:0.993721;fill:#0d151b;fill-opacity:1;stroke:none;stroke-width:5.2551"
     id="rect1"
     width="60.216076"
     height="62.503597"
     x="1418.6705"
     y="1218.0233"
     transform="matrix(0.89793485,-0.4401284,0.03997185,0.99920081,0,0)" />
</svg>
